# xmcd CD database file
#
# Track frame offsets:
#	150
#	13537
#	27252
#	44087
#	55042
#	76867
#	88312
#	102017
#	113380
#
# Disc length: 1796 seconds
#
# Revision: 0
# Processed by: cddbd v1.5.1PL0 Copyright (c) Steve Scherf et al.
# Submitted via: CDex 1.51
#
DISCID=61070209
DTITLE=Julie Burrell - Julie Burrell
DYEAR=1990
DGENRE=Jazz
TTITLE0=Queen's Chess
TTITLE1=The Thrill Is Gone
TTITLE2=Houston
TTITLE3=Daddy
TTITLE4=You Don't Know What Love Is
TTITLE5=Just For You
TTITLE6=I Just Want To Make Love To You
TTITLE7=You'd Be So Nice To Come Home To
TTITLE8=Angel Eyes
EXTD=YEAR: 1990
EXTT0=
EXTT1=
EXTT2=
EXTT3=
EXTT4=
EXTT5=
EXTT6=
EXTT7=
EXTT8=
PLAYORDER=
